<svg width="104" height="45" xmlns="http://www.w3.org/2000/svg" xmlns:xlink="http://www.w3.org/1999/xlink"><defs><path id="a" d="M.006.251h27.82v26.353H.005z"/></defs><g fill="none" fill-rule="evenodd"><path d="M21.856 6.45c2.325.166 2.983 1.05 3.074.413-.897-.552-.312-.708-2.025-1.05-1.859-.607-5.939-1.43-8.998-1.312-1.273-1.158-.633.112-7.536.112-.685 0-.254.225-2.4.225-.29-.233-1.645-.223-1.724-.263-4.42.946-1.386 5.035 1.162 3.412 1.458-.85.011-1.43 7.311-1.612.213 1.33.907 14.592.675 19.946 0 .3.525.863.825.863 1.918 0 2.437-19.788 2.437-20.696 1.882-.283 6.973.188 7.199-.038" fill="#fff"/><path d="M24.067 20.922c0 .557-1.824 3.637-3.412 3.637-.818 0-2.137-.927-2.137-2.4 0-.487-.15-.75-.15-1.087 0-1.035.485-1.142.6-1.987.375-.075.75-.412 1.125-.6 1.135 0 3.974 1.036 3.974 2.437m1.988-2.55c-1.66-1.756-3.622-1.2-5.025-1.2-.512 0 .3-1.652.3-2.136 0-2.306-4.515-.742-4.799 1.537-.425 1.694-1.292 3.563-.937 4.274.187.338.675 2.25.787 2.362 3.213 3.615 5.274 3.05 7.911.225 2.943-3.169 2.045-5.061 1.763-5.061" fill="#fff"/><g transform="translate(23.76 .109)"><mask id="b" fill="#fff"><use xlink:href="#a"/></mask><path d="M8.03 24.15l-.225-.112c0-.338 1.688-1.537 1.988-1.612 0 .487-1.35 1.5-1.763 1.724zm19.747-1.112c-.798.979-1.663 1.959-2.801 1.675-.527-1.16-.123-4.053.188-4.95.187-.524.675-1.124.675-1.686 0-.375-.825-.9-1.2-.9-.597 0-2.362 1.035-2.362 1.724 0 .263.262.338.337.563-.75 1.762-1.874 3.561-3.487 4.649-.923 0 .714-9.03 3.262-7.574 4.1 0 2.97-2.961.375-2.961-1.294 0-4.045 2.073-4.574 2.849 0 .194-.383.746-.766 1.223-4.318 1.835-2.945 1.51-2.945.39 0-2.588-8.848-4.462-8.848-5.437 0-.689.634-5.1.6-5.1 0-1.874.45-2.099 1.162-3.748C9.02.225 5.369-.802 3.268 1.43c-.075.225-.187.487-.374.675 0 2.103.862 1.12.862 3.487.194 0 .024 6.186-.113 6.186-.524-.3-.937-.225-1.424-.45-3.316-.221-2.573 4.014.037 4.537.263.075 1.35 0 1.35.412-.074.15-.225 4.462-.074 4.761-.078.155-.472 6.679 1.574 5.4.472-1.372.067-5.391.3-5.624.269-4.447-.449-4.19.487-4.424.035.011 5.137.587 5.137 2.324.112.78-.095.758-.037 1.275-.396 1.185-.254.71-1.275 1.35-1.972 1.548-2.962 2.409-2.962 3.224 0 .525.412 1.125.975 1.125 1.087 0 5.061-4.05 5.698-5.174 3.924-1.962 3.3-1.838 2.436-.113 0 .827-.3.827-.3 1.162.15.45.15 1.013.15 1.425 0 .694 2.29 4.022 4.237 2.4.038-.263.3-.338.525-.413.161-.768 1.036-.64 1.125-1.35.552-.138.763-1.012.937-1.012.337.975 1.012 3.337 2.325 3.337 1.162 0 2.55-.6 2.961-1.762l-.048-1.15z" fill="#fff" mask="url(#b)"/></g><path d="M58.934 28.308c-.113.638-1.463 4.8-3.863 7.012-.636.6-.9-.45-.937-.525.484-3.148 4.971-7.855 4.8-6.487m-.788-11.772c-1.725 2.662-2.887 5.661-4.836 8.173-.188 0-.113-.337-.038-.45-.075-3.187.375-5.136 3.262-6.898.225-.413.675-.6 1.162-.563.519-.388.45-.37.45-.262m4.012 8.435c-.262 0-.262.113-.037-.45-.338-.712.412-.524 0-.862.473-.54.042-.386.262-.9-.131-.327.47-.974.263-1.912l.15-.337c-.113-.262-.038-1.05-.076-1.087.113-.6-.262-1.238-.262-1.837 0-.526.15-.975.15-1.5 0-2.402-2.304-1.261-2.662-1.312-.939-2.91-2.376-1.747-3.037-1.987-.337-.076-2.063.937-2.325 1.2-.337.374-.262.637-.487 1.011-.112.263-.375.338-.487.563-1.57 3.87-3.57 8.275-1.912 10.685 1.078.675.787.625 1.237.375.037.15-.038.15.337.15.114-.681 1.475-1.92 1.612-1.874 0-.225.038-.563.3-.6 1.513-1.816 2.81-4.948 3.6-5.737.774 0 1.253 3.42.825 6.786-.14.731.026.857-1.275 1.725-2.75 1.706-5.42 5.613-5.587 6.561-.487.525-1.237.788-1.387 1.613-.038.262-.038.637-.113.937-.15.787 1.238 2.437 2.063 2.624 2.704.45 7.551-9.037 8.21-11.96.226-.712 1.763-1.05 1.988-1.162.075-.038-1.35-.713-1.35-.713M72.393 20.922c0 .557-1.824 3.637-3.412 3.637-.819 0-2.137-.927-2.137-2.4 0-.487-.15-.75-.15-1.087 0-1.035.485-1.142.6-1.987.374-.075.75-.412 1.124-.6 1.135 0 3.975 1.036 3.975 2.437m1.987-2.55c-1.656-1.753-3.632-1.2-5.025-1.2-.51 0 .3-1.652.3-2.136 0-2.306-4.514-.742-4.798 1.537-.426 1.694-1.293 3.563-.938 4.274.188.338.675 2.25.787 2.362 3.213 3.615 5.274 3.05 7.912.225 2.942-3.169 2.045-5.061 1.762-5.061M87.38 36.652c0 1.092-2.8 3.54-2.8-.186 0-.261.206-.318.262-.728.187-.037.373-.205.56-.298.53 0 1.977.489 1.977 1.212m-6.731 2.295c0 .28-1.12 3.134-1.455 3.134-1.226 0 1.455-4.004 1.455-3.134m-7.462-4.701c.278.275-.708 1.652-1.623 1.194.168-1.008.896-1.138 1.623-1.194m-6.716 4.066c-.318-.159.787-.835.877-.858 0 .243-.672.746-.877.858m19.324-3.786c0-.15.223-.56.223-.802 0-1.27-2.48-.216-2.48.988.055.315-.426.94-.386 1.732-.496.225-.973.47-.973.47-.113 0 .2-2.761-2.015-2.761-1.157 0-2.201 1.25-2.313 1.23 0-.26.018-.484.018-.783-.39-1.56-2.369-.34-2.369.448-.112.13.038.634.187.597 0 .04.134.704-.056.876-1.507 1.454-4.01 2.523-4.01.41-.124-.922.943.601 2.555-1.417v-.205c.15-.224.037-.112.037-.317.093-.355.056-.187-.055-.616-.15-.056-.113-.28-.206-.41-.186-.297-1.14-.635-1.287-.635-.56.02-.69.224-.97.411-.093.056-.187.019-.261.075-.216.185-.836 1.082-1.045 1.082-.237 0-.64-.183-.887-.077-.82-1.056-4.225-1.829-4.225-2.255 0-.517.346-2.537.299-2.537 0-1.375.69-1.498.783-2.705-.043-1.12-1.482-1.14-2.257-.317-.518 1.55.28-.089.28 3.488 0 .036-.024 1.66-.094 1.66-.894-.51-2.376-.295-1.548 1.474 1.934 1.77 1.455-1.453 1.455 4.067.087 0-.201 1.735.672 1.847.275-.172.298-.146.298-4.944 0-.385 1.496.151 1.903.205.78.39 1.16.585.802 1.66-.075.28-.261.262-.56.448-2.008 1.58-1.48 2.164-.988 2.164.541 0 2.518-2.014 2.835-2.574.2-.1.572-.284.972-.473.26.186-.057 2.7 2.274 2.88 1.285.148 3.34-2.11 3.375-2.124-.02.116.058-.02.058.967 0 .357.47.736.914.914-.019-.056.243-.056.336-.056 0-1.701 3.637-5.928 3.637-.765 0 .036-2.816 2.126-2.816 5.41 0 2.034 2.014 1.713 2.014.671 0-.409 1.604-3.443 1.604-3.75 0-.372.35-1.549.355-1.585.052-.84-.158-.763 1.419-1.597.988 3.215 4.435 2.327 5.275-.94-.1-2.026-2.78-.787-2.78-1.53M100.046 34.843c-.757 2.764-2.537 3.672-2.537 2.929.174-2.8 2.537-3.358 2.537-2.93m3.06-7.181c.068-.257 1.56-3.061-.766-1.399-.858 1.049-.317.833-.317 1.193-1.3 3.978-1.437 6.075-1.698 6.1-.956-.387-1.324-.422-2.089.15-.017.035-1.303 1.333-1.38 2.182-.924 1.193.044 2.929-1.023 2.929-.395 0-1.12-1.841-1.12-3.302-.046-.935-.777-1.517-1.94-.354-.167.224-.167.448-.372.653-.317.317-.802.97-1.232 1.66-.111-1.689.751-5.756-1.753-3.563-.056.13-.131.15-.131.28 0 .149.093.168.093.242 0 1.931-.13 4.59 1.791 4.365.63-.243.025-.768 1.381-2.35.782-.979.3 1.156 1.343 2.201.056.056.914.635 1.212.635 1.326 0 .947-.155 1.269-.262.447-.447-.12-.17.78.262.917-.153.308.326 1.68-.728.12-.281.813-.606 1.193-2.239.802-2.602-.364 2.836 2.37 2.836.606 0 .828-.618.484-.746-1.614-.6-.34-9 .224-10.745" fill="#FFF"/><path d="M87.38 36.652c0 1.092-2.8 3.54-2.8-.186 0-.261.206-.318.262-.728.187-.037.373-.205.56-.298.53 0 1.977.489 1.977 1.212m-6.731 2.295c0 .28-1.12 3.134-1.455 3.134-1.226 0 1.455-4.004 1.455-3.134m-7.462-4.701c.278.275-.708 1.652-1.623 1.194.168-1.008.896-1.138 1.623-1.194m-6.716 4.066c-.318-.159.787-.835.877-.858 0 .243-.672.746-.877.858m19.324-3.786c0-.15.223-.56.223-.802 0-1.27-2.48-.216-2.48.988.055.315-.426.94-.386 1.732-.496.225-.973.47-.973.47-.113 0 .2-2.761-2.015-2.761-1.157 0-2.201 1.25-2.313 1.23 0-.26.018-.484.018-.783-.39-1.56-2.369-.34-2.369.448-.112.13.038.634.187.597 0 .04.134.704-.056.876-1.507 1.454-4.01 2.523-4.01.41-.124-.922.943.601 2.555-1.417v-.205c.15-.224.037-.112.037-.317.093-.355.056-.187-.055-.616-.15-.056-.113-.28-.206-.41-.186-.297-1.14-.635-1.287-.635-.56.02-.69.224-.97.411-.093.056-.187.019-.261.075-.216.185-.836 1.082-1.045 1.082-.237 0-.64-.183-.887-.077-.82-1.056-4.225-1.829-4.225-2.255 0-.517.346-2.537.299-2.537 0-1.375.69-1.498.783-2.705-.043-1.12-1.482-1.14-2.257-.317-.518 1.55.28-.089.28 3.488 0 .036-.024 1.66-.094 1.66-.894-.51-2.376-.295-1.548 1.474 1.934 1.77 1.455-1.453 1.455 4.067.087 0-.201 1.735.672 1.847.275-.172.298-.146.298-4.944 0-.385 1.496.151 1.903.205.78.39 1.16.585.802 1.66-.075.28-.261.262-.56.448-2.008 1.58-1.48 2.164-.988 2.164.541 0 2.518-2.014 2.835-2.574.2-.1.572-.284.972-.473.26.186-.057 2.7 2.274 2.88 1.285.148 3.34-2.11 3.375-2.124-.02.116.058-.02.058.967 0 .357.47.736.914.914-.019-.056.243-.056.336-.056 0-1.701 3.637-5.928 3.637-.765 0 .036-2.816 2.126-2.816 5.41 0 2.034 2.014 1.713 2.014.671 0-.409 1.604-3.443 1.604-3.75 0-.372.35-1.549.355-1.585.052-.84-.158-.763 1.419-1.597.988 3.215 4.435 2.327 5.275-.94-.1-2.026-2.78-.787-2.78-1.53M100.046 34.843c-.757 2.764-2.537 3.672-2.537 2.929.174-2.8 2.537-3.358 2.537-2.93m3.06-7.181c.068-.257 1.56-3.061-.766-1.399-.858 1.049-.317.833-.317 1.193-1.3 3.978-1.437 6.075-1.698 6.1-.956-.387-1.324-.422-2.089.15-.017.035-1.303 1.333-1.38 2.182-.924 1.193.044 2.929-1.023 2.929-.395 0-1.12-1.841-1.12-3.302-.046-.935-.777-1.517-1.94-.354-.167.224-.167.448-.372.653-.317.317-.802.97-1.232 1.66-.111-1.689.751-5.756-1.753-3.563-.056.13-.131.15-.131.28 0 .149.093.168.093.242 0 1.931-.13 4.59 1.791 4.365.63-.243.025-.768 1.381-2.35.782-.979.3 1.156 1.343 2.201.056.056.914.635 1.212.635 1.326 0 .947-.155 1.269-.262.447-.447-.12-.17.78.262.917-.153.308.326 1.68-.728.12-.281.813-.606 1.193-2.239.802-2.602-.364 2.836 2.37 2.836.606 0 .828-.618.484-.746-1.614-.6-.34-9 .224-10.745" fill="#FFF"/></g></svg>